<?xml version="1.0" encoding="UTF-8"?>
<svg id="Layer_2" data-name="Layer 2" xmlns="http://www.w3.org/2000/svg" viewBox="0 0 322.4 257.44">
  <defs>
    <style>
      .cls-1 {
        fill: #00d700;
        stroke-width: 0px;
      }
    </style>
  </defs>
  <g id="Layer_1-2" data-name="Layer 1">
    <path class="cls-1" d="m321.4,178.3l-5.01-11.77v-.02s-6.03-14.13-6.03-14.13l-8.27-19.43-6.01-14.13-16.81-39.45-6.01-14.13-7.07-16.59-6.01-14.13h-110.28l-6.03-14.16H26.18c1.03-1.94,1.61-4.15,1.61-6.5C27.79,6.99,22.76,1.28,16.18.2c-.74-.13-1.5-.2-2.28-.2C9.85,0,6.21,1.73,3.67,4.49,1.39,6.96,0,10.26,0,13.88c0,2.35.58,4.55,1.61,6.5,2.28,4.31,6.78,7.28,11.98,7.39l2.88,6.77,6.01,14.13,7.07,16.59,6.01,14.13,16.81,39.45,6.01,14.13,8.27,19.43,6.02,14.13v.02s6.02,14.13,6.02,14.13l21.99,51.63c-19.81,1.42-34.42,6.42-34.42,12.36,0,6.97,20.1,12.64,45.12,12.77.32.01.64.01.97.01,4.57,0,8.98-.19,13.15-.53,7.51-.62,14.2-1.75,19.57-3.24,5.62-1.58,9.79-3.55,11.88-5.77.98-1.04,1.5-2.12,1.5-3.24,0-2.18-1.97-4.23-5.45-6.04-3.84-1.97-9.51-3.64-16.39-4.82-6.37-1.1-13.81-1.79-21.76-1.9l-21.82-51.24-6.01-14.13v-.02s104.75,0,104.75,0v.02s6.02,14.13,6.02,14.13h124.62l-1-2.36Zm-39.66-59.47h-15.44l-16.81-39.45h15.44l16.81,39.45Zm-130.14-46.65l3.05,7.2,1.73,4.04h0s15.08,35.41,15.08,35.41l.81,1.9c-3.1-.21-6.08-.87-8.88-1.9-10.92-3.99-19.11-13.62-21.07-25.36h0c-.31-1.79-.46-3.61-.46-5.47,0-2.98.4-5.87,1.15-8.61.32-1.21.72-2.38,1.19-3.53h0c1.27-3.23,3.04-6.19,5.22-8.81l2.19,5.14Zm-84.9,46.65l-16.81-39.45h20.95l16.81,39.45h-20.95Zm14.28,33.56l-8.27-19.43h35.29l-6.01-14.13-16.81-39.45-6.01-14.13h-35.29l-7.07-16.59-6.01-14.13h104.77l6.01,14.13,2.64,6.19c-3.29,3.01-6.13,6.52-8.39,10.4-2.54,4.3-4.36,9.07-5.34,14.13-.54,2.79-.83,5.67-.83,8.61,0,.72.02,1.42.04,2.13.33,7.08,2.31,13.72,5.54,19.57h0c1.82,3.33,4.06,6.4,6.64,9.13,7.68,8.17,18.38,13.48,30.32,14.13h4.96c.11-.01.21-.01.31-.02v.02s4.62,10.81,4.62,10.81h0s3.66,8.62,3.66,8.62h-104.77Zm113.72-19.43c-.57.84-1.19,1.64-1.85,2.42l-1.04-2.42-1.2-2.83-4.8-11.25v-.04s-15.91-37.34-15.91-37.34c15.29.99,27.71,12.43,30.21,27.26.31,1.78.46,3.61.46,5.48,0,1.57-.11,3.1-.32,4.6-.36,2.62-1.05,5.16-2.01,7.54h-.01c-.91,2.34-2.11,4.54-3.53,6.58Zm11.41,33.58v-.02s-6.03-14.13-6.03-14.13l-2.06-4.84c4.48-4.06,8.13-9.02,10.68-14.59,2.01-4.38,3.33-9.13,3.84-14.13.15-1.51.23-3.04.23-4.6,0-.72-.02-1.42-.04-2.13h0c-.34-7.08-2.3-13.73-5.54-19.59-2.78-5.05-6.5-9.51-10.93-13.13-7.76-6.36-17.7-10.18-28.52-10.18-1.01,0-2.03.03-3.03.1l-1.72-4.05-2.86-6.69-4.21-9.89h95.94l7.07,16.59h-29.78l6.01,14.13,16.81,39.45,6.01,14.13h29.78l8.27,19.43,5.06,11.89.96,2.24v.02s-95.93,0-95.93,0Z"/>
  </g>
</svg>